<svg xmlns="http://www.w3.org/2000/svg" id="Capa_2" data-name="Capa 2" version="1.1" viewBox="0 0 250 50.6"><defs><linearGradient id="Degradado_sin_nombre" x1="23.4" x2="24.3" y1="722.4" y2="797.2" data-name="Degradado sin nombre" gradientTransform="translate(0 -740)" gradientUnits="userSpaceOnUse"><stop offset=".1" stop-color="#51ae32"/><stop offset=".8" stop-color="#0b9839"/></linearGradient><style>.cls-2,.cls-3{stroke-width:0}.cls-2{fill-rule:evenodd}.cls-2,.cls-3{fill:#fff}.cls-4{isolation:isolate}</style></defs><path d="M47.8 25.3c0 13.2-10.7 23.9-23.9 23.9S0 38.5 0 25.3 10.7 1.4 23.9 1.4s23.9 10.7 23.9 23.9Z" style="stroke-width:0;fill:url(#Degradado_sin_nombre)"/><path d="M38 20.9c-1.6-6.6-7.3-11.1-14.2-11.2-.8 0-1.8.1-2.7.3-9.6 1.9-14.6 12.6-9.9 21.2.2.2.2.5.1.7-.7 2.2-1.3 4.5-1.9 6.7-.1.3 0 .4.3.3 2.4-.6 4.7-1.2 7-1.8h.5c3 1.5 6.2 2 9.5 1.3 8-1.5 13.2-9.6 11.3-17.5ZM25.9 36.1c-.7 0-1.4.2-1.7 0-2.6 0-4.6-.6-6.5-1.7-.3-.2-.5-.2-.7 0-1.3.3-2.6.7-3.9 1-.3 0-.3 0-.2-.2.3-1.2.7-2.4 1.1-3.7.1-.3.1-.6-.1-.9-2.6-4.3-2.5-9.6.4-13.5 3.1-4.1 7.3-5.8 12.3-4.7 4.9 1 8.1 4.3 9.2 9.2 1.4 6.7-3.1 13.4-9.9 14.5Z" class="cls-2"/><path d="M27.7 31.1c-.5 0-1-.1-1.5-.2-3.3-1-5.8-3-7.9-5.8-.8-1-1.5-2.1-1.7-3.4-.3-1.5.2-2.9 1.3-3.9.4-.4 1.5-.5 1.9-.3.1.1.2.3.3.4.4 1 .9 2 1.3 3 .1.2 0 .4-.1.6-.2.5-.6.8-.9 1.2-.3.2-.3.5-.1.8 1.2 2 2.8 3.4 5 4.2.3.1.5.1.8-.2.4-.4.7-.9 1.1-1.4.2-.3.5-.3.8-.2.7.3 1.4.7 2.1 1 .2.1.3.2.5.2q.7.4.6 1.2c-.1 1.5-1.3 2.3-2.6 2.7-.3.2-.6.2-.9 0Z" class="cls-2"/><g class="cls-4"><path d="M61.6 14.1h-5.5l-1 2.5h-2.8l5.3-11.8h2.7l5.3 11.8h-2.9l-1.1-2.5Zm-.9-2-1.9-4.5-1.8 4.5h3.7Zm4.8 3.4.9-2.1c1 .7 2.5 1.2 3.9 1.2s2.3-.5 2.3-1.3c0-2.2-6.9-.7-6.9-5.1s1.6-3.7 5-3.7 3 .4 4.1 1L74 7.8c-1.1-.6-2.2-.9-3.3-.9-1.6 0-2.2.6-2.2 1.4 0 2.2 6.9.7 6.9 5s-1.6 3.7-5 3.7c-2-.1-3.9-.7-4.9-1.5Zm20.5-1v2.2h-9.2V4.8h8.9V7h-6.2v2.6H85v2.1h-5.5v2.7H86Zm1 1 .9-2.1c1 .7 2.5 1.2 3.9 1.2s2.3-.5 2.3-1.3c0-2.2-6.9-.7-6.9-5.1s1.6-3.7 5-3.7 3 .4 4.1 1l-.8 2.1c-1.1-.6-2.2-.9-3.3-.9-1.6 0-2.2.6-2.2 1.4 0 2.2 6.9.7 6.9 5s-1.6 3.7-5 3.7c-2 .1-3.9-.5-4.9-1.3Zm10.6-4.7c0-3.5 2.7-6.1 6.5-6.1s6.5 2.6 6.5 6.1-2.8 6.1-6.5 6.1-6.5-2.6-6.5-6.1Zm10.2 0c0-2.3-1.6-3.8-3.7-3.8s-3.7 1.5-3.7 3.8 1.6 3.8 3.7 3.8 3.7-1.6 3.7-3.8Zm12.1 5.9-2.3-3.3h-2.5v3.3h-2.7V4.8h5.1c3.2 0 5.1 1.6 5.1 4.3s-.9 3.1-2.4 3.7l2.7 3.8h-3Zm-2.6-9.6h-2.2v4.1h2.2c1.7 0 2.5-.8 2.5-2.1s-.8-2-2.5-2Zm9.3-5.7h2.8l-3.1 2.4h-2.1l2.4-2.4Zm-2.2 3.4h2.7v11.8h-2.7V4.8Zm13.1 9.3H132l-1 2.5h-2.8l5.3-11.8h2.7l5.3 11.8h-2.9l-1.1-2.5Zm-.9-2-1.9-4.5-1.9 4.5h3.8Z" class="cls-3"/></g><g class="cls-4"><path d="M145.9 10.8c0-3.6 2.7-6.1 6.4-6.1s3.8.7 4.9 2.1l-1.8 1.6c-.8-.9-1.8-1.4-3-1.4-2.2 0-3.8 1.6-3.8 3.8s1.6 3.8 3.8 3.8 2.2-.5 3-1.4l1.8 1.6c-1.1 1.4-2.8 2.1-4.9 2.1-3.7 0-6.4-2.6-6.4-6.1Z" class="cls-3"/></g><g class="cls-4"><path d="M157.7 10.8c0-3.5 2.7-6.1 6.5-6.1s6.5 2.6 6.5 6.1-2.8 6.1-6.5 6.1-6.5-2.6-6.5-6.1Zm10.2 0c0-2.3-1.6-3.8-3.7-3.8s-3.7 1.5-3.7 3.8 1.6 3.8 3.7 3.8c2.1-.1 3.7-1.6 3.7-3.8Zm15.3 5.9V9.6l-3.5 5.9h-1.2L175 9.7v7h-2.6V4.8h2.3l4.4 7.4 4.4-7.4h2.2v11.8h-2.5Zm14.2-2.2v2.2h-9.2V4.8h8.9V7H191v2.6h5.5v2.1H191v2.7h6.4Zm9.4 2.2-2.3-3.3H202v3.3h-2.7V4.8h5.1c3.2 0 5.1 1.6 5.1 4.3s-.9 3.1-2.4 3.7l2.7 3.8h-3Zm-2.6-9.6H202v4.1h2.2c1.7 0 2.5-.8 2.5-2.1.1-1.3-.8-2-2.5-2Zm6.4 3.7c0-3.6 2.7-6.1 6.4-6.1s3.8.7 4.9 2.1l-1.8 1.6c-.8-.9-1.8-1.4-3-1.4-2.2 0-3.8 1.6-3.8 3.8s1.6 3.8 3.8 3.8 2.2-.5 3-1.4l1.8 1.6c-1.1 1.4-2.8 2.1-4.9 2.1-3.6 0-6.4-2.6-6.4-6.1Zm12.8-6h2.7v11.8h-2.7V4.8Zm13.1 9.3H231l-1 2.5h-2.8l5.3-11.8h2.7l5.3 11.8h-2.9l-1.1-2.5Zm-.9-2-1.9-4.5-1.9 4.5h3.8Zm5.7-7.3h2.7v9.6h5.9v2.2h-8.7V4.8h.1Z" class="cls-3"/></g><g class="cls-4"><path d="M69.4 40c0 3.9-2.8 7.2-8.8 7.2s-6.3-1-8.4-2.6l1.7-3.2c1.6 1.3 4 2.2 6.5 2.2s4.7-1.3 4.7-3.4-1.4-3.5-6-3.5h-5.4L55 24.6h13.1V28h-9.6l-.5 5.2h2.1c6.6 0 9.3 2.9 9.3 6.8Z" class="cls-3"/></g><g class="cls-4"><path d="M87.8 40c0 3.9-2.8 7.2-8.8 7.2s-6.3-1-8.4-2.6l1.7-3.2c1.6 1.3 4 2.2 6.5 2.2s4.7-1.3 4.7-3.4-1.4-3.5-6-3.5h-5.4l1.1-12.1h13.1V28h-9.6l-.5 5.1h2.1c6.8 0 9.5 3 9.5 6.9Z" class="cls-3"/></g><g class="cls-4"><path d="M114.7 40.2c0 3.8-2.8 7-8.8 7s-6.3-1-8.4-2.6l1.8-3.2c1.6 1.3 4 2.2 6.5 2.2s4.7-1.3 4.7-3.4-1.5-3.3-4.8-3.3h-2v-2.8l5.1-6H98.6v-3.5h15.2v2.8l-5.4 6.4c4.2.5 6.3 3 6.3 6.4Z" class="cls-3"/></g><g class="cls-4"><path d="M133.4 43.3v3.5H117V44l8.8-8.4c2.2-2.1 2.5-3.4 2.5-4.6 0-2-1.4-3.2-4.1-3.2s-4 .7-5.2 2.3l-2.9-2.2c1.7-2.3 4.8-3.7 8.5-3.7s7.9 2.4 7.9 6.4-.6 4.1-3.7 7l-5.9 5.7h10.5Z" class="cls-3"/></g><g class="cls-4"><path d="M151.9 40c0 3.9-2.8 7.2-8.8 7.2s-6.3-1-8.4-2.6l1.7-3.2c1.6 1.3 4 2.2 6.5 2.2s4.7-1.3 4.7-3.4-1.4-3.5-6-3.5h-5.4l1.1-12.1h13.1V28h-9.6l-.5 5.1h2.1c6.9 0 9.5 3 9.5 6.9Z" class="cls-3"/></g><g class="cls-4"><path d="M169.9 40.2c0 3.8-2.8 7-8.8 7s-6.3-1-8.4-2.6l1.8-3.2c1.6 1.3 4 2.2 6.5 2.2s4.7-1.3 4.7-3.4-1.5-3.3-4.8-3.3h-2v-2.8l5.1-6h-10.1v-3.5H169v2.8l-5.4 6.4c4.2.5 6.3 3 6.3 6.4Z" class="cls-3"/></g><g class="cls-4"><path d="M201.2 41.8h-3.9v5.1h-4v-5.1h-12.2v-2.9l11-14.3h4.4l-10.3 13.7h7.3v-4.5h3.9v4.5h3.9v3.5Z" class="cls-3"/></g><g class="cls-4"><path d="M209.9 24.6v22.2h-4.1V28H201v-3.5h8.9ZM230.5 40c0 3.9-2.8 7.2-8.8 7.2s-6.3-1-8.4-2.6l1.7-3.2c1.6 1.3 4 2.2 6.5 2.2s4.7-1.3 4.7-3.4-1.4-3.5-6-3.5H215l1.1-12.1h13.1V28h-9.6l-.5 5.1h2.1c6.6 0 9.3 3 9.3 6.9Zm19.5-4.7c0 7.6-4.5 11.8-10.9 11.8s-4.4-.5-5.8-1.4l1.5-3.1c1.2.8 2.7 1.1 4.2 1.1 4.2 0 6.8-2.6 6.8-7.7-1.3 1.6-3.5 2.3-5.9 2.3-4.4 0-7.7-2.7-7.7-6.8s3.6-7.2 8.1-7.2 9.7 3.9 9.7 11Zm-4.8-4c0-2.1-1.7-3.8-4.6-3.8s-4.4 1.5-4.4 3.8 1.7 3.8 4.5 3.8 4.5-1.6 4.5-3.8Z" class="cls-3"/></g></svg>