<svg id="Layer_1" data-name="Layer 1" xmlns="http://www.w3.org/2000/svg" viewBox="0 0 403.94 32.4"><defs><style>.cls-1{fill:#ce1120}.cls-2{fill:gray}</style></defs><title>honeywell-fire-systems-logo</title><path class="cls-1" d="M14.65 1.28h7.52v24.43h-7.52V14.56h-5.9v11.15H1.17V1.28h7.58v10.17h5.9V1.28zm28.71 10.64a10.81 10.81 0 0 1 .57 8.54 8.65 8.65 0 0 1-4.22 4.84 12 12 0 0 1-5.33 1.07 10.47 10.47 0 0 1-6.28-1.81 9 9 0 0 1-3.41-4.91c-.53-2-.85-5.68 1.32-8.56a9.22 9.22 0 0 1 6.17-3.62 10.35 10.35 0 0 1 2-.18 12.15 12.15 0 0 1 4.41.63 8.45 8.45 0 0 1 4.8 4zM37 14.38a9.09 9.09 0 0 0-.44-2.92c-.36-.91-1-1.94-2.1-1.94a1.69 1.69 0 0 0-.38 0c-.59.11-1.14.73-1.65 1.84s-.45 2.49-.45 4.58v2c-.06 3.22.22 4.18.91 5.22a2.13 2.13 0 0 0 1.41 1 1.62 1.62 0 0 0 1.26-.4c1.12-.94 1.37-2.93 1.42-3.52s0-3.46 0-5.86zM62.44 8a7.92 7.92 0 0 0-6.44.2 7.76 7.76 0 0 0-2.4 2.09v-2.4h-7v17.82h7V12.9a4.14 4.14 0 0 1 1.81-1.72 2.19 2.19 0 0 1 2.5.25 2.78 2.78 0 0 1 .56 1.88v12.4h6.95V12.14a4.84 4.84 0 0 0-3-4.19zm24.06 4.07a12.31 12.31 0 0 1 1.12 5.81H75.07v3.62a3.18 3.18 0 0 0 .42 1.11c.28.39 1.3 1.87 4.74 1.33 3.81-.61 3.7-3.33 3.78-3.33h3a4.69 4.69 0 0 1-1.29 3 10.54 10.54 0 0 1-6 2.68c-2.49.25-6 .33-8.84-2A9.15 9.15 0 0 1 68.05 20a11 11 0 0 1 .61-7.85c1.4-2.82 5-5.07 9.37-4.84s6.97 1.8 8.47 4.76zm-6.19 1.84a9.19 9.19 0 0 0-.31-2.33v-.05a3.43 3.43 0 0 0-.92-1.53 2.14 2.14 0 0 0-2.54-.18 3.88 3.88 0 0 0-1.31 2.33 23.6 23.6 0 0 0-.16 3.27h5.23v-1.46zm70.2-1.84a12.31 12.31 0 0 1 1.1 5.81h-12.54v3.62a3.18 3.18 0 0 0 .42 1.11c.28.39 1.3 1.87 4.74 1.33 3.81-.61 3.71-3.33 3.78-3.33h3a4.69 4.69 0 0 1-1.29 3 10.54 10.54 0 0 1-6 2.68c-2.49.25-6 .33-8.84-2a9.22 9.22 0 0 1-2.83-4.29 11 11 0 0 1 .61-7.85c1.4-2.82 5-5.07 9.37-4.84s6.92 1.82 8.48 4.78zm-6.2 1.84a9.19 9.19 0 0 0-.28-2.33v-.05a3.43 3.43 0 0 0-.94-1.58 2.14 2.14 0 0 0-2.54-.18 3.84 3.84 0 0 0-1.31 2.33 22 22 0 0 0-.15 3.27h5.22v-1.46zm-15.5-6l-2.71 10-3-10h-6.15l-2.73 10-3.11-10h-9.63L98 16.37l-3.33-8.48H87l7.11 18.26a3.1 3.1 0 0 1-.15.69 7.17 7.17 0 0 1-1.51 2.73 1.94 1.94 0 0 1-1.81.67 2.61 2.61 0 0 0 .6-.84 3 3 0 0 0-.24-2.26c-.4-.82-1.49-1.46-3.18-1.14a2.87 2.87 0 0 0-2.25 3.32c.17 1.47 1.11 2.71 3.49 3.13a5.61 5.61 0 0 0 5.14-1.61c1.31-1.17 2.38-4.15 2.38-4.15L104 8.51l5.27 17.2h6l2.84-10.34 3.22 10.34h5.8L132 7.89zm24.9 17.82h6.76V1.28h-6.76v24.43zm8.87-24.43v24.41h6.75V1.28z" transform="translate(-1.17 -.85)"/><path class="cls-2" d="M189.33.42h1.78v24.43h-1.78V.42z"/><path class="cls-2" d="M213.45 1.27h17v2.66h-13.9v8.24h12.5v2.72h-12.5v10.82h-3.1zM234.67 1.48a1.82 1.82 0 0 1 2.06 2 2.06 2.06 0 0 1-4.12 0 1.82 1.82 0 0 1 2.06-2zm1.5 7.23v17h-3v-17zM241.54 8.71h2.59l.31 3.59a6.17 6.17 0 0 1 6.5-3.87v2.86c-4.19-.42-6.29 1.89-6.39 6.25v8.17h-3zM252.4 17.23c0-5.83 2.83-8.94 8.1-8.94 5 0 7.26 3.49 7.26 8.2 0 .53 0 1.05-.07 1.61h-12.32c.21 4.12 1.95 5.62 5.13 5.62 2.44 0 3.94-.63 5-3l2.24 1.16c-1.37 3-4 4.22-7.3 4.22-5.11.03-8.04-2.73-8.04-8.87zm3-1.43h9.39c-.14-3.67-1.74-5.14-4.43-5.14-2.93 0-4.64 1.44-4.96 5.14zM292.16 6.72c-1.29-2.38-3-3.46-6.11-3.46-4.09 0-5.52 1.82-5.52 4.23 0 1.85 1.05 3.35 4.47 4.08l2.48.53c5.41 1.15 7.72 3.21 7.72 7 0 4.54-3.32 7-9 7-4.05 0-7.43-1.19-9.56-4.75l2.44-1.53c1.82 2.68 3.74 3.87 7 3.87 4.26 0 6.08-1.6 6.08-4.29 0-2.52-1.15-3.53-5.2-4.44l-2.48-.56q-6.92-1.56-6.92-6.8c0-4 2.94-6.78 8.42-6.78 4.57 0 6.91 1.57 8.55 4.33zM303.29 26l-7-17.32h3.18l5.41 14.17 5.41-14.17h3.11L305.18 29c-1.37 3.31-3.46 4.29-6.11 4.29a8.1 8.1 0 0 1-2.73-.45l.49-2.52a6.47 6.47 0 0 0 2.27.39c1.08 0 2.58-.25 3.49-2.69zM325.11 21.35c0-1.61-1-2.24-3.28-2.69l-1.83-.38c-3.92-.81-5.35-2.62-5.35-5 0-2.87 2.06-5 6.5-5 3 0 4.75.94 6.18 2.72l-1.92 1.85a5 5 0 0 0-4.47-2.23c-2.31 0-3.49.87-3.49 2.3 0 1.26.66 2.24 3.1 2.76l1.92.42c4.26.94 5.49 2.55 5.49 5s-1.68 5-6.85 5c-3.31 0-5.72-.91-7.26-3.46l2.15-1.5c1.22 2 2.76 2.72 5.17 2.72 2.83 0 3.94-1.01 3.94-2.51zM332.68 8.71v-5h2.93v5h4.92v2.34h-4.92V20c0 3 1.19 3.6 2.86 3.6a6 6 0 0 0 2.06-.35l.49 2.44a7.71 7.71 0 0 1-2.89.49c-3.36 0-5.45-1.78-5.45-6.07v-9h-3v-2.4zM342.45 17.23c0-5.83 2.83-8.94 8.1-8.94 5 0 7.26 3.49 7.26 8.2 0 .53 0 1.05-.07 1.61h-12.32c.21 4.12 1.95 5.62 5.13 5.62 2.45 0 3.95-.63 5-3l2.24 1.16c-1.36 3-3.95 4.22-7.3 4.22-5.11.03-8.04-2.73-8.04-8.87zm3-1.43h9.4c-.14-3.67-1.75-5.14-4.44-5.14-2.93 0-4.64 1.44-4.96 5.14zM361.61 8.71h2.59l.31 3.14a6.22 6.22 0 0 1 5.87-3.56 5 5 0 0 1 5.23 4.15 6.51 6.51 0 0 1 6.5-4.15c3.87 0 5.69 2.3 5.69 6.67v10.75h-3v-10c0-3.53-1.3-4.86-3.6-4.86-3 0-4.92 2.06-5 6v8.83h-3v-9.81c0-3.6-1.33-5-3.74-5-2.86 0-4.74 2.06-4.81 6.08v8.76h-3zM402.28 21.35c0-1.61-1-2.24-3.28-2.69l-1.85-.38c-3.91-.81-5.34-2.62-5.34-5 0-2.87 2.06-5 6.49-5 3 0 4.75.94 6.18 2.72l-1.92 1.85a5 5 0 0 0-4.47-2.23c-2.3 0-3.49.87-3.49 2.3 0 1.26.66 2.24 3.11 2.76l1.92.42c4.26.94 5.48 2.55 5.48 5s-1.68 5-6.84 5c-3.32 0-5.73-.91-7.27-3.46l2.13-1.53c1.23 2 2.76 2.72 5.17 2.72 2.83.03 3.98-.98 3.98-2.48z" transform="translate(-1.17 -.85)"/></svg>