<svg xmlns="http://www.w3.org/2000/svg" xml:space="preserve" id="Capa_1" x="0" y="0" style="enable-background:new 0 0 16 16" version="1.1" viewBox="0 0 16 16"><style>.st0{fill:#004c97}</style><path d="M-20.4 8c0-4.4-3.6-8-8-8s-8 3.6-8 8c0 3.8 2.6 6.9 6.1 7.8v-5.3H-32V8h1.6V7c0-2.7 1.2-4 3.9-4 .5 0 1.4.1 1.7.2v2.2h-.9c-1.3 0-1.8.5-1.8 1.8V8h2.6l-.4 2.4h-2.2V16c4-.5 7.1-3.9 7.1-8zM-10.4 3.9c-2.3 0-4.1 1.8-4.1 4.1s1.8 4.1 4.1 4.1 4.1-1.8 4.1-4.1-1.8-4.1-4.1-4.1zm0 6.7c-1.5 0-2.7-1.2-2.7-2.7s1.2-2.7 2.7-2.7S-7.7 6.5-7.7 8s-1.2 2.6-2.7 2.6zm5.2-6.9c0 .5-.4 1-1 1-.5 0-1-.4-1-1s.4-1 1-1 1 .5 1 1zm2.8 1c-.1-1.3-.4-2.4-1.3-3.3C-4.6.5-5.8.2-7 .1c-1.3-.1-5.3-.1-6.6 0-1.3.1-2.4.4-3.3 1.3-.9.9-1.2 2.1-1.3 3.3-.1 1.3-.1 5.3 0 6.6.1 1.3.4 2.4 1.3 3.3.9.9 2.1 1.2 3.3 1.3 1.3.1 5.3.1 6.6 0 1.3-.1 2.4-.4 3.3-1.3.9-.9 1.2-2.1 1.3-3.3V4.7zm-1.7 8c-.3.7-.8 1.2-1.5 1.5-1 .4-3.5.3-4.7.3s-3.7.1-4.7-.3c-.7-.3-1.2-.8-1.5-1.5-.4-1-.3-3.5-.3-4.7s-.1-3.7.3-4.7c.3-.7.8-1.2 1.5-1.5 1-.4 3.5-.3 4.7-.3s3.7-.1 4.7.3c.6.2 1.2.8 1.5 1.5.4 1 .3 3.5.3 4.7s.1 3.6-.3 4.7zM14.9 0H1.2C.6 0 .1.5.1 1.2v13.6c0 .6.5 1.1 1.1 1.1h13.7c.6 0 1.1-.5 1.1-1.1V1.2c0-.7-.5-1.2-1.1-1.2zm-10 13.7H2.5V6.1h2.4v7.6zM3.7 5c-.8 0-1.4-.6-1.4-1.4s.6-1.4 1.4-1.4c.8 0 1.4.6 1.4 1.4 0 .8-.6 1.4-1.4 1.4zm10 8.7h-2.4V10c0-.9 0-2-1.2-2s-1.4 1-1.4 2v3.8H6.4V6.1h2.3v1c.3-.6 1-1.2 2.2-1.2 2.4 0 2.8 1.6 2.8 3.6v4.2zM34 6.6c-1.4 0-2.7-.4-3.8-1.2V11c0 2.8-2.3 5.1-5.1 5.1S20 13.8 20 11s2.3-5.1 5.1-5.1h.7v2.8c-1.2-.4-2.5.3-2.9 1.5-.4 1.2.3 2.5 1.5 2.9 1.2.4 2.5-.3 2.9-1.5.1-.2.1-.5.1-.7V0h2.8c0 .2 0 .5.1.7.2 1 .8 1.9 1.7 2.5.6.4 1.3.6 2.1.6v2.8zM50 .8h2.4l-5.3 6.1 6.2 8.3h-4.9l-3.8-5-4.4 5h-2.4l5.7-6.5-6-7.8h5L46 5.4l4-4.6zm-.9 12.9h1.3L41.8 2.2h-1.4l8.7 11.5zM71.9 4.1c-.2-.7-.7-1.2-1.4-1.4-1.2-.3-6.3-.3-6.3-.3s-5 0-6.3.3c-.7.2-1.2.7-1.4 1.4-.3 1.3-.3 3.9-.3 3.9s0 2.6.3 3.9c.2.7.7 1.2 1.4 1.4 1.2.3 6.3.3 6.3.3s5 0 6.3-.3c.7-.2 1.2-.7 1.4-1.4.3-1.3.3-3.9.3-3.9s0-2.6-.3-3.9zm-9.3 6.3V5.6L66.8 8l-4.2 2.4zM89 2.3C87.5.8 85.5 0 83.4 0c-4.4 0-7.9 3.6-7.9 7.9 0 1.4.4 2.8 1.1 4L75.4 16l4.2-1.1c1.2.6 2.5 1 3.8 1 4.4 0 8-3.6 8-7.9 0-2.2-.9-4.2-2.4-5.7zm-5.6 12.2c-1.2 0-2.3-.3-3.4-.9l-.2-.1-2.5.7.7-2.4-.2-.2c-.7-1.1-1-2.3-1-3.5 0-3.6 3-6.6 6.6-6.6 1.8 0 3.4.7 4.7 1.9s2 2.9 2 4.7c-.1 3.5-3.1 6.4-6.7 6.4zM87 9.6c-.2-.1-1.2-.6-1.4-.6-.2-.1-.3-.1-.4.1-.1.2-.5.6-.6.8-.1.1-.2.2-.4.1-1.2-.6-1.9-1-2.7-2.4-.2-.4.2-.3.6-1.1.1-.1 0-.2 0-.3-.1-.2-.5-1.2-.7-1.6-.2-.4-.3-.3-.4-.3h-.4c-.1 0-.3 0-.5.2s-.7.7-.7 1.7.7 1.9.8 2.1c.1.1 1.4 2.1 3.4 3 1.3.5 1.8.6 2.4.5.4-.1 1.2-.5 1.3-.9.2-.5.2-.9.1-.9-.1-.3-.2-.3-.4-.4z" class="st0"/></svg>